<?xml version="1.0" standalone="no"?>
<!DOCTYPE svg PUBLIC "-//W3C//DTD SVG 20010904//EN"
 "http://www.w3.org/TR/2001/REC-SVG-20010904/DTD/svg10.dtd">
<svg version="1.0" xmlns="http://www.w3.org/2000/svg"
 width="375.000000pt" height="666.000000pt" viewBox="0 0 375.000000 666.000000"
 preserveAspectRatio="xMidYMid meet">
<metadata>
Created by potrace 1.16, written by Peter Selinger 2001-2019
</metadata>
<g transform="translate(0.000000,666.000000) scale(0.100000,-0.100000)"
fill="#000000" stroke="none">
<path d="M1339 5756 c-20 -7 -51 -24 -70 -37 -28 -20 -50 -25 -129 -30 -89 -5
-100 -8 -170 -48 -41 -24 -113 -60 -159 -80 -73 -32 -91 -44 -130 -94 -27 -33
-76 -78 -117 -105 -108 -72 -227 -168 -261 -210 -60 -74 -73 -113 -73 -214 0
-227 -74 -488 -139 -488 -19 0 -61 39 -61 57 0 6 -7 16 -15 23 -24 20 -21 -68
4 -94 11 -12 31 -42 45 -68 31 -56 35 -140 11 -228 -9 -30 -25 -113 -36 -185
-41 -252 -40 -236 -18 -266 21 -30 24 -73 10 -146 -13 -66 -20 -327 -11 -388
5 -27 15 -70 24 -94 9 -24 25 -94 36 -155 45 -261 147 -438 321 -556 61 -42
97 -86 81 -102 -5 -5 -46 -13 -91 -17 -45 -5 -151 -26 -236 -47 l-155 -39 0
-1072 0 -1073 1875 0 1875 0 0 768 0 768 -67 26 c-38 14 -94 31 -126 37 -60
11 -87 22 -125 52 -31 24 -131 56 -214 69 -87 13 -108 23 -137 66 -13 18 -38
43 -55 53 -42 27 -167 60 -199 54 -30 -6 -34 3 -13 26 16 18 96 175 96 189 0
5 11 25 24 45 14 20 20 37 15 39 -12 4 -1 38 12 38 4 0 6 -8 3 -17 -2 -10 9 9
25 42 31 64 40 96 15 55 l-15 -25 6 25 c4 14 10 39 14 55 5 19 13 30 23 29 16
-2 23 17 44 126 10 51 11 110 3 104 -14 -8 -21 37 -14 84 7 49 43 173 98 332
28 85 32 106 30 195 -1 55 -5 128 -8 161 l-8 61 55 37 c71 46 85 46 79 -1 -2
-18 18 -26 34 -13 27 22 17 96 -23 190 -14 31 -13 48 1 165 9 71 19 157 21
190 2 33 14 87 25 120 19 52 21 73 16 160 -4 55 -11 125 -16 155 -5 30 -14
108 -20 174 -9 104 -8 120 6 136 22 25 5 94 -50 190 -23 41 -45 83 -48 93 -13
35 -88 137 -110 148 -12 7 -49 33 -82 59 -70 54 -166 110 -188 110 -9 0 -19 5
-23 12 -5 7 -2 8 7 3 8 -4 5 1 -6 13 -23 23 -251 123 -274 120 -19 -2 -31 3
-28 13 2 12 -24 26 -203 113 -150 72 -176 78 -307 70 -93 -5 -117 -3 -172 15
-67 22 -185 29 -196 11 -3 -6 -17 -7 -31 -4 -13 4 -24 2 -24 -4 0 -13 -61 -6
-164 19 -43 10 -79 19 -80 19 0 -1 -17 -7 -37 -14z m1290 -777 c19 -11 40 -27
48 -35 8 -8 23 -14 33 -14 10 0 21 -4 24 -9 3 -5 25 -18 48 -29 68 -31 157
-110 218 -193 59 -80 75 -124 114 -325 14 -71 46 -377 49 -474 4 -112 -5 -226
-18 -245 -23 -30 -123 -35 -450 -24 -284 11 -310 14 -299 44 9 23 -22 37 -61
26 -20 -5 -58 -8 -83 -5 -29 3 -55 0 -68 -8 -58 -36 -103 -69 -135 -99 -42
-41 -147 -105 -163 -101 -6 2 -54 4 -106 3 -52 0 -111 4 -130 9 -38 10 -80 61
-80 97 0 35 -43 87 -83 100 -60 20 -184 26 -269 13 -43 -7 -80 -16 -83 -20 -5
-8 70 -30 103 -30 24 0 59 -37 46 -49 -5 -4 -110 -13 -234 -20 -124 -6 -245
-16 -270 -22 -26 -6 -100 -9 -175 -7 -158 5 -180 15 -191 86 -15 94 -7 258 15
330 40 128 90 357 101 462 22 208 41 256 139 348 53 50 158 112 189 112 12 0
32 -5 46 -11 19 -9 37 -8 83 6 32 10 65 24 74 32 23 19 59 15 104 -12 44 -27
103 -33 135 -13 16 10 28 8 72 -14 30 -15 78 -32 108 -38 32 -7 62 -20 73 -32
14 -17 20 -18 32 -8 8 7 15 21 15 31 0 23 34 42 60 34 11 -3 27 -19 37 -35 10
-18 36 -38 66 -51 59 -25 81 -19 117 35 31 45 74 65 102 47 32 -20 114 -3 197
40 61 32 85 39 131 39 44 0 61 -4 75 -20 25 -28 45 -25 104 16 45 30 84 51
101 53 3 1 20 -8 39 -20z m-2389 -1506 l45 -78 0 -140 c1 -94 5 -151 14 -173
7 -17 11 -44 8 -59 -7 -34 29 -256 47 -292 7 -14 16 -39 20 -54 4 -16 16 -31
30 -37 20 -7 25 -20 35 -77 7 -37 14 -78 17 -90 2 -12 -1 -25 -6 -28 -16 -10
-38 13 -61 64 -18 41 -22 44 -33 29 -7 -10 -19 -18 -25 -18 -7 0 -9 -4 -6 -10
3 -6 -1 -7 -9 -4 -9 3 -16 12 -16 18 0 7 -5 17 -11 23 -11 11 -30 61 -114 305
-65 190 -70 221 -68 411 2 128 6 174 17 195 9 15 20 46 26 70 15 57 32 47 90
-55z m2799 71 c29 -12 33 -17 28 -42 -8 -38 5 -59 23 -37 7 8 24 15 37 15 25
0 25 -1 20 -57 -7 -74 -28 -146 -49 -170 -26 -31 -38 -83 -43 -203 -16 -372
-41 -511 -140 -799 -59 -171 -89 -238 -156 -342 -64 -100 -97 -144 -166 -218
-72 -77 -186 -215 -220 -265 -25 -37 -55 -72 -118 -140 -85 -91 -208 -150
-344 -166 -231 -26 -395 5 -504 98 -18 15 -136 131 -263 258 -212 214 -384
406 -384 431 0 6 -7 17 -16 24 -17 14 -72 128 -93 191 -7 21 -16 40 -21 43
-19 12 -50 88 -44 107 4 12 2 18 -4 15 -5 -4 -9 11 -9 36 1 30 -13 70 -46 139
-65 136 -129 369 -128 468 2 211 23 516 36 528 23 22 107 43 205 51 57 6 106
8 108 6 2 -1 -11 -11 -28 -21 -38 -23 -35 -42 8 -67 32 -19 35 -19 100 -2 37
10 84 19 106 19 37 1 39 -1 52 -43 7 -24 10 -49 8 -55 -7 -19 62 -46 119 -46
59 0 127 16 127 30 0 6 -3 10 -7 10 -5 0 -14 4 -22 9 -10 7 -9 16 10 50 29 51
57 59 120 37 26 -10 58 -16 71 -14 19 2 22 8 20 33 -2 17 -15 41 -29 54 -15
14 -21 27 -15 29 18 6 129 -56 151 -84 22 -28 28 -64 11 -64 -7 0 -8 -13 -4
-34 3 -19 0 -66 -6 -104 -23 -124 10 -162 65 -74 16 26 32 52 34 57 2 6 12 22
22 37 12 16 19 43 19 71 0 64 21 77 127 77 71 0 85 -3 109 -23 27 -23 27 -24
11 -56 -12 -25 -14 -38 -5 -59 5 -15 14 -64 19 -110 5 -46 13 -91 18 -100 5
-10 15 -71 22 -137 8 -77 18 -132 30 -152 10 -18 21 -48 25 -68 3 -19 10 -35
14 -35 19 0 16 120 -9 295 -26 180 -22 227 19 240 15 5 26 1 35 -12 20 -26 49
-6 53 38 4 39 -16 59 -53 51 -29 -5 -31 7 -14 57 9 25 9 38 -1 57 -12 21 -11
27 8 47 11 12 46 37 76 56 47 28 59 31 71 21 14 -12 13 -15 -5 -35 -11 -12
-20 -26 -20 -33 0 -6 -8 -16 -17 -22 -25 -15 65 -3 120 16 38 14 43 13 67 -4
38 -29 38 -67 -1 -103 l-33 -31 34 -29 c41 -34 77 -46 99 -32 18 11 22 44 7
55 -5 3 8 9 30 13 130 20 165 29 193 46 47 29 29 39 -37 21 -32 -8 -67 -12
-76 -9 -16 6 -16 10 5 47 28 50 81 71 133 52 59 -21 136 7 136 50 0 39 90 45
169 12z m-699 -2548 c-12 -34 -28 -60 -75 -127 -22 -31 -48 -69 -57 -85 -33
-55 -43 -69 -105 -144 -34 -41 -76 -88 -95 -103 -18 -15 -51 -43 -73 -62 -22
-19 -45 -35 -52 -35 -6 0 -18 -6 -25 -13 -7 -7 -29 -19 -48 -27 -19 -8 -37
-16 -40 -20 -18 -20 -69 -42 -130 -55 -78 -16 -211 -20 -225 -6 -6 5 -27 14
-47 20 -80 26 -132 122 -73 137 14 3 37 3 53 -2 15 -4 55 -7 90 -5 40 2 62 -1
62 -8 0 -6 7 -11 15 -11 8 0 15 -4 15 -9 0 -5 29 -14 65 -21 36 -7 65 -16 65
-21 0 -4 23 -1 52 8 40 11 57 12 70 4 15 -9 20 -8 24 4 4 8 15 15 26 15 16 0
19 5 14 25 -5 20 3 34 45 77 28 29 67 73 87 98 52 63 110 120 123 120 5 0 20
21 31 48 28 62 58 102 86 113 12 5 22 17 22 28 0 12 13 25 37 36 21 10 44 24
51 32 19 19 23 16 12 -11z m1073 -603 c53 -25 97 -51 97 -58 0 -13 -197 -112
-206 -102 -4 3 3 22 15 42 26 45 27 75 1 117 -37 61 -33 61 93 1z"/>
<path d="M2718 3985 c-2 -2 -43 -6 -93 -9 -155 -11 -391 -45 -441 -64 -43 -15
-52 -24 -78 -74 -30 -60 -47 -158 -28 -158 6 0 31 20 55 44 24 25 54 47 68 50
205 40 510 71 599 61 30 -4 84 -13 119 -21 57 -13 67 -13 79 0 18 18 5 54 -36
102 -23 27 -40 33 -117 48 -126 25 -124 24 -127 21z"/>
<path d="M791 3909 c-39 -8 -77 -33 -119 -78 -40 -42 -39 -67 3 -64 95 7 413
4 490 -5 50 -6 148 -13 218 -16 106 -4 135 -9 163 -25 19 -12 47 -21 61 -21
23 0 25 3 19 32 -10 52 -69 114 -124 131 -104 33 -616 65 -711 46z"/>
<path d="M2015 2558 c-40 -40 -58 -46 -162 -54 -67 -5 -101 -3 -142 10 -30 9
-76 16 -103 16 -42 0 -48 -3 -48 -21 0 -40 84 -123 171 -168 146 -75 198 -56
350 127 5 7 15 27 21 44 10 29 9 33 -18 55 -16 12 -31 22 -34 22 -3 -1 -18
-15 -35 -31z"/>
<path d="M2218 1985 c-8 -8 -674 -30 -820 -28 -115 2 -128 1 -128 -15 0 -11
17 -24 46 -36 43 -18 63 -18 293 -11 135 4 318 8 406 9 88 0 169 4 180 8 11 4
39 12 63 18 65 17 52 59 -19 60 -9 0 -18 -2 -21 -5z"/>
<path d="M1965 1755 c-5 -2 -85 -9 -177 -14 -92 -6 -174 -14 -182 -17 -27 -11
-18 -42 17 -58 77 -35 132 -48 182 -42 51 7 190 51 213 69 21 16 14 47 -14 57
-14 6 -26 10 -27 9 -1 0 -6 -2 -12 -4z"/>
</g>
</svg>
